<svg width="1336" height="299" viewBox="0 0 1336 299" fill="none" xmlns="http://www.w3.org/2000/svg">
<path d="M25.088 17.9409L6.18897 14.6876L25.088 11.4342L30.9207 0.891993L36.7529 11.4342L55.6523 14.6876L36.7529 17.9409L30.9207 28.4831L25.088 17.9409Z" fill="#F44D99"/>
<path d="M996.403 46.8112C996.403 42.1628 1003.16 38.393 1011.49 38.393C1019.83 38.393 1026.59 42.1628 1026.59 46.8112C1026.59 51.4644 1019.83 55.2343 1011.49 55.2343C1003.16 55.2343 996.403 51.4644 996.403 46.8112Z" stroke="#4BDFEA" stroke-width="4.759"/>
<path d="M2.26904 72.6403C2.26904 70.6371 5.17678 69.0152 8.75952 69.0152C12.3509 69.0152 15.25 70.6371 15.25 72.6403C15.25 74.6387 12.3509 76.2606 8.75952 76.2606C5.17678 76.2606 2.26904 74.6387 2.26904 72.6403Z" stroke="#4BDFEA" stroke-width="2.824"/>
<path d="M209.458 76.082C206.776 75.2325 205.841 73.3306 207.364 71.8342C208.896 70.3379 212.306 69.8166 214.988 70.6709C217.662 71.5205 218.606 73.4223 217.074 74.9187C215.551 76.4151 212.141 76.9364 209.458 76.082Z" fill="#FFE843"/>
<path d="M109.355 88.1928C109.355 86.1316 112.358 84.4567 116.062 84.4567C119.757 84.4567 122.76 86.1316 122.76 88.1928C122.76 90.2587 119.757 91.9337 116.062 91.9337C112.358 91.9337 109.355 90.2587 109.355 88.1928Z" fill="#FFE843"/>
<path d="M352.898 124.916C352.898 122.083 357.017 119.785 362.096 119.785C367.176 119.785 371.295 122.083 371.295 124.916C371.295 127.75 367.176 130.047 362.096 130.047C357.017 130.047 352.898 127.75 352.898 124.916Z" stroke="#4BDFEA" stroke-width="4"/>
<path d="M276.731 162.369L265.655 160.463L276.731 158.556L280.14 152.382L283.559 158.556L294.635 160.463L283.559 162.369L280.14 168.543L276.731 162.369Z" fill="#F44D99"/>
<path d="M296.651 184.771C296.651 181.938 300.77 179.64 305.85 179.64C310.93 179.64 315.049 181.938 315.049 184.771C315.049 187.605 310.93 189.902 305.85 189.902C300.77 189.902 296.651 187.605 296.651 184.771Z" stroke="#4BDFEA" stroke-width="4"/>
<path d="M394.435 200.217C394.435 197.384 398.554 195.086 403.633 195.086C408.713 195.086 412.832 197.384 412.832 200.217C412.832 203.051 408.713 205.349 403.633 205.349C398.554 205.349 394.435 203.051 394.435 200.217Z" stroke="#4BDFEA" stroke-width="4"/>
<path d="M1310.82 211.006C1310.82 207.632 1315.71 204.9 1321.75 204.9C1327.8 204.9 1332.69 207.632 1332.69 211.006C1332.69 214.375 1327.8 217.107 1321.75 217.107C1315.71 217.107 1310.82 214.375 1310.82 211.006Z" stroke="#4BDFEA" stroke-width="4.759"/>
<path d="M97.6041 229.464L86.5276 227.557L97.6041 225.651L101.013 219.477L104.432 225.651L115.508 227.557L104.432 229.464L101.013 235.638L97.6041 229.464Z" fill="#F44D99"/>
<path d="M45.1385 223.44C45.9519 225.101 44.2039 226.814 41.2271 227.268C38.2503 227.727 35.1781 226.752 34.3647 225.091C33.5426 223.431 35.2904 221.717 38.2672 221.263C41.244 220.805 44.3164 221.78 45.1385 223.44Z" fill="#FFE843"/>
<path d="M1113.18 225.989C1113.18 223.952 1116.15 222.296 1119.8 222.296C1123.46 222.296 1126.42 223.952 1126.42 225.989C1126.42 228.026 1123.46 229.682 1119.8 229.682C1116.15 229.682 1113.18 228.026 1113.18 225.989Z" fill="#FFE843"/>
<path d="M611.637 262.486C611.637 259.652 615.756 257.355 620.835 257.355C625.914 257.355 630.033 259.652 630.033 262.486C630.033 265.319 625.914 267.617 620.835 267.617C615.756 267.617 611.637 265.319 611.637 262.486Z" stroke="#4BDFEA" stroke-width="4"/>
<path d="M884.601 292.988C884.601 289.922 889.057 287.432 894.569 287.432C900.073 287.432 904.529 289.922 904.529 292.988C904.529 296.062 900.073 298.553 894.569 298.553C889.057 298.553 884.601 296.062 884.601 292.988Z" fill="#FFE843"/>
</svg>
