<svg width="239" height="263" viewBox="0 0 239 263" fill="none" xmlns="http://www.w3.org/2000/svg">
<g opacity="0.28">
<path opacity="0.28" d="M106.813 260.181L3.68553 200.468C-0.0501758 198.305 -0.0501735 192.898 3.68583 190.735L118.11 124.492C121.927 122.282 126.63 122.277 130.452 124.48L235.895 185.25C239.639 187.408 239.645 192.823 235.905 194.989L123.314 260.181C118.208 263.137 111.918 263.137 106.813 260.181Z" fill="#CDE9F9"/>
</g>
<g opacity="0.46">
<path opacity="0.46" d="M67.334 71.8962L15.9894 101.545C14.0435 102.669 11.6138 101.26 11.6138 99.0081V83.0705C11.6138 82.0237 12.1713 81.0562 13.0763 80.5338L64.4206 50.8851C66.3666 49.7613 68.7962 51.17 68.7962 53.4219V69.3591C68.7962 70.4063 68.2387 71.3738 67.334 71.8962Z" fill="#CDE9F9"/>
</g>
<g opacity="0.46">
<path opacity="0.46" d="M72.1341 39.7462L20.7894 69.3948C18.8435 70.5187 16.4138 69.1099 16.4138 66.8581V50.9209C16.4138 49.874 16.9713 48.9065 17.8763 48.3841L69.2207 18.7355C71.1666 17.6116 73.5963 19.0204 73.5963 21.2722V37.2095C73.5963 38.2566 73.0388 39.2238 72.1341 39.7462Z" fill="#CDE9F9"/>
</g>
<path d="M225.657 79.6599V196.905C225.657 198.945 224.563 200.828 222.789 201.83L215.914 205.715L214.29 95.7401L214.097 82.6492L84.3687 5.56287L90.7352 1.87547C92.8266 0.664233 95.4029 0.664233 97.4944 1.87547L222.572 74.2989C223.715 74.9612 224.592 75.9576 225.113 77.1241C225.467 77.9087 225.657 78.7709 225.657 79.6599Z" fill="#CDE9F9"/>
<path d="M225.657 79.6599V196.905C225.657 198.945 224.562 200.828 222.789 201.83L215.914 205.715L214.29 95.74V83.2309L225.113 77.124C225.467 77.9086 225.657 78.7708 225.657 79.6599Z" fill="#AECFDC"/>
<path d="M84.3701 125.656V5.56128L211.578 79.2171C214.262 80.7708 215.915 83.642 215.915 86.7491V205.715L87.8509 131.697C85.6973 130.452 84.3701 128.149 84.3701 125.656Z" fill="#7CCAF1"/>
<path d="M84.3701 125.656V5.56128L211.578 79.2171C214.262 80.7708 215.915 83.642 215.915 86.7491V205.715L87.8509 131.697C85.6973 130.452 84.3701 128.149 84.3701 125.656Z" fill="url(#paint0_linear_239_5820)"/>
<path d="M91.2961 97.0028L121.166 114.298C122.515 115.079 123.346 116.523 123.346 118.085V118.152C123.346 119.507 121.883 120.355 120.712 119.677L90.8862 102.407C89.8687 101.818 89.2422 100.73 89.2422 99.5515V98.1917C89.2419 97.135 90.3831 96.4745 91.2961 97.0028Z" fill="#17A1DB"/>
<path d="M91.2961 105.265L121.166 122.56C122.515 123.341 123.346 124.784 123.346 126.346V126.413C123.346 127.769 121.883 128.616 120.712 127.939L90.8862 110.669C89.8687 110.08 89.2422 108.991 89.2422 107.813V106.453C89.2419 105.396 90.3831 104.736 91.2961 105.265Z" fill="#E7F6FD"/>
<path d="M91.2961 113.332L121.166 130.627C122.515 131.408 123.346 132.851 123.346 134.413V134.48C123.346 135.836 121.883 136.683 120.712 136.005L90.8862 118.736C89.8687 118.147 89.2422 117.059 89.2422 115.881V114.521C89.2419 113.464 90.3831 112.803 91.2961 113.332Z" fill="#17A1DB"/>
<path d="M91.2961 121.593L121.166 138.888C122.515 139.669 123.346 141.113 123.346 142.675V142.742C123.346 144.098 121.883 144.945 120.712 144.267L90.8862 126.997C89.8687 126.408 89.2422 125.32 89.2422 124.142V122.782C89.2419 121.725 90.3831 121.065 91.2961 121.593Z" fill="#17A1DB"/>
<path d="M134.402 47.0826L209.164 90.3716C210.073 90.8979 210.633 91.8705 210.633 92.9227V171.643C210.633 173.513 208.614 174.682 206.999 173.747L135.316 132.242C133.685 131.298 132.681 129.553 132.681 127.665V48.079C132.681 47.1933 133.637 46.6398 134.402 47.0826Z" fill="url(#paint1_linear_239_5820)"/>
<path d="M129.939 48.8726L204.702 92.1617C205.611 92.6879 206.17 93.6605 206.17 94.7127V173.433C206.17 175.303 204.151 176.472 202.536 175.537L130.853 134.032C129.222 133.088 128.218 131.343 128.218 129.455V49.8691C128.218 48.9833 129.174 48.4299 129.939 48.8726Z" fill="white"/>
<path d="M132.897 65.4229V105.124C132.897 106.425 133.594 107.626 134.722 108.269L153.767 119.123C155.41 120.059 157.45 118.869 157.45 116.973V78.148C157.45 76.7759 156.712 75.5107 155.519 74.8386L135.792 63.7239C134.497 62.9944 132.897 63.933 132.897 65.4229Z" fill="url(#paint2_linear_239_5820)"/>
<path d="M162.277 81.6717L162.317 93.943C162.32 95.0424 162.905 96.057 163.853 96.6089L198.568 116.812C199.78 117.517 201.299 116.64 201.299 115.235V103.397C201.299 102.208 200.666 101.108 199.639 100.514L164.683 80.274C163.612 79.6537 162.273 80.4315 162.277 81.6717Z" fill="#BD8AAE"/>
<path d="M164.463 102.715L199.715 123.126C200.695 123.693 201.298 124.742 201.298 125.877V126.704C201.298 128.028 199.868 128.857 198.724 128.194L163.712 107.922C162.819 107.404 162.268 106.448 162.268 105.414V103.985C162.268 102.856 163.488 102.15 164.463 102.715Z" fill="#BD8AAE"/>
<path d="M162.322 115.598V139.286C162.322 140.308 162.866 141.253 163.748 141.765L179.217 150.747C180.357 151.409 181.783 150.584 181.783 149.264V126.008C181.783 124.783 181.129 123.652 180.07 123.043L164.702 114.215C163.643 113.606 162.322 114.373 162.322 115.598Z" fill="#306097"/>
<path d="M186.682 129.725V153.203C186.682 154.361 187.298 155.43 188.298 156.009L198.537 161.938C199.764 162.648 201.299 161.76 201.299 160.339V137.72C201.299 136.239 200.511 134.871 199.233 134.131L189.154 128.295C188.055 127.659 186.682 128.454 186.682 129.725Z" fill="#3C7FBE"/>
<path d="M143.389 118.521C139.369 116.218 136.081 118.097 136.081 122.697C136.081 127.296 139.369 132.989 143.389 135.347C147.408 137.705 150.697 135.826 150.697 131.171C150.697 126.517 147.408 120.824 143.389 118.521Z" fill="#3C7FBE"/>
<path d="M128.218 53.3022L206.144 98.6384V94.6804C206.144 93.6482 205.594 92.6941 204.703 92.1777L129.916 48.8597C129.161 48.4226 128.218 48.9686 128.218 49.8424V53.3022Z" fill="#3C7FBE"/>
<path d="M131.614 51.2665C130.909 50.8622 130.332 51.1922 130.332 51.9995C130.332 52.8068 130.909 53.8062 131.614 54.2202C132.32 54.6343 132.897 54.3044 132.897 53.4872C132.897 52.6701 132.32 51.6707 131.614 51.2665Z" fill="white"/>
<path d="M135.727 53.6936C135.021 53.2894 134.444 53.6191 134.444 54.4267C134.444 55.2343 135.021 56.2334 135.727 56.6475C136.432 57.0616 137.01 56.7316 137.01 55.9145C137.01 55.0973 136.432 54.0979 135.727 53.6936Z" fill="#E7F6FD"/>
<path d="M139.774 55.9142C139.068 55.51 138.491 55.8396 138.491 56.6472C138.491 57.4548 139.068 58.4539 139.774 58.868C140.48 59.2821 141.057 58.9521 141.057 58.135C141.057 57.3179 140.48 56.3188 139.774 55.9142Z" fill="#CDE9F9"/>
<path d="M97.3869 26.3733L126.211 43.0627C127.384 43.7417 128.106 44.9968 128.106 46.3548V107.173C128.106 109.258 125.856 110.561 124.055 109.518L95.7846 93.149C94.6814 92.5102 94.002 91.33 94.002 90.0526V28.3327C94.002 26.5908 95.8827 25.5022 97.3869 26.3733Z" fill="url(#paint3_linear_239_5820)"/>
<path d="M92.6269 27.2683L121.451 43.9577C122.623 44.6367 123.346 45.8918 123.346 47.2498V108.068C123.346 110.153 121.096 111.456 119.295 110.413L91.0246 94.044C89.9214 93.4052 89.2419 92.225 89.2419 90.9476V29.2278C89.2419 27.4858 91.1227 26.3972 92.6269 27.2683Z" fill="#222457"/>
<path d="M92.6269 27.2683L121.451 43.9577C122.623 44.6367 123.346 45.8918 123.346 47.2498V108.068C123.346 110.153 121.096 111.456 119.295 110.413L91.0246 94.044C89.9214 93.4052 89.2419 92.225 89.2419 90.9476V29.2278C89.2419 27.4858 91.1227 26.3972 92.6269 27.2683Z" fill="url(#paint4_linear_239_5820)"/>
<path d="M91.5881 35.2925V36.2173L95.461 38.4575V37.533L91.5881 35.2925Z" fill="#CDE9F9"/>
<path d="M120.817 54.8125V53.888L96.9141 40.062V40.9868L120.817 54.8125Z" fill="#CDE9F9"/>
<path d="M91.5881 36.9817V37.9059L95.461 40.1464V39.2216L91.5881 36.9817Z" fill="#CDE9F9"/>
<path d="M91.5881 38.6705V39.5951L95.461 41.8353V40.9107L91.5881 38.6705Z" fill="#CDE9F9"/>
<path d="M120.817 56.5013V55.5768L96.9141 41.7511V42.6756L120.817 56.5013Z" fill="#CDE9F9"/>
<path d="M91.5881 43.7374V44.6616L95.461 46.9018V45.9773L91.5881 43.7374Z" fill="#CDE9F9"/>
<path d="M91.5881 45.4263V46.3508L95.461 48.591V47.6665L91.5881 45.4263Z" fill="#CDE9F9"/>
<path d="M91.5881 52.1818V53.1063L95.461 55.3465V54.4219L91.5881 52.1818Z" fill="#CDE9F9"/>
<path d="M91.5881 53.871V54.7955L95.461 57.0354V56.1109L91.5881 53.871Z" fill="#CDE9F9"/>
<path d="M111.994 65.6739L96.9141 56.9515V57.8761L111.994 66.5984V65.6739Z" fill="#CDE9F9"/>
<path d="M112.788 66.1333V67.0581L120.817 71.7017V70.7775L112.788 66.1333Z" fill="#CDE9F9"/>
<path d="M104.49 59.6446L96.9141 55.2627V56.1872L104.49 60.5695V59.6446Z" fill="#CDE9F9"/>
<path d="M105.285 60.1047V61.0293L120.817 70.013V69.0884L105.285 60.1047Z" fill="#CDE9F9"/>
<path d="M118.774 62.8398V63.7644L120.817 64.9461V64.0218L118.774 62.8398Z" fill="#CDE9F9"/>
<path d="M107.654 54.7191L96.9141 48.507V49.4315L107.654 55.644V54.7191Z" fill="#CDE9F9"/>
<path d="M103.253 38.6622L96.9141 34.9954V35.9202L103.253 39.5867V38.6622Z" fill="#CDE9F9"/>
<path d="M113.645 44.6727L104.048 39.1219V40.0468L113.645 45.5976V44.6727Z" fill="#CDE9F9"/>
<path d="M108.052 43.1268L101.295 39.2186V40.1432L108.052 44.0513V43.1268Z" fill="#CDE9F9"/>
<path d="M115.141 47.227L108.846 43.5862V44.511L115.141 48.1516V47.227Z" fill="#CDE9F9"/>
<path d="M115.936 47.6868V48.6113L120.817 51.4347V50.5102L115.936 47.6868Z" fill="#CDE9F9"/>
<path d="M98.1626 39.0957V40.0202L103.253 42.9645V42.04L98.1626 39.0957Z" fill="#CDE9F9"/>
<path d="M118.825 51.0472L104.048 42.5V43.4245L118.825 51.9718V51.0472Z" fill="#CDE9F9"/>
<path d="M110.365 51.2205L100.708 45.6345V46.5591L110.365 52.145V51.2205Z" fill="#CDE9F9"/>
<path d="M118.825 56.1141L111.16 51.6799V52.6048L118.825 57.0386V56.1141Z" fill="#CDE9F9"/>
<path d="M117.979 60.6911L108.449 55.1788V56.1034L117.979 61.6157V60.6911Z" fill="#CDE9F9"/>
<path d="M112.788 59.3779V60.3025L117.979 63.3046V62.3801L112.788 59.3779Z" fill="#CDE9F9"/>
<path d="M98.7832 51.277L96.9141 50.1958V51.1203L98.7832 52.2015V51.277Z" fill="#CDE9F9"/>
<path d="M102.284 53.302V54.2265L111.994 59.8427V58.9181L102.284 53.302Z" fill="#CDE9F9"/>
<path d="M101.489 52.8422L99.5779 51.7366V52.6611L101.489 53.7667V52.8422Z" fill="#CDE9F9"/>
<path d="M110.197 59.5679L99.5779 53.4255V54.3501L110.197 60.4925V59.5679Z" fill="#CDE9F9"/>
<path d="M91.5881 58.715V59.6395L95.461 61.8797V60.9551L91.5881 58.715Z" fill="#BD8AAE"/>
<path d="M91.5881 60.4042V61.3287L95.461 63.5689V62.6444L91.5881 60.4042Z" fill="#BD8AAE"/>
<path d="M91.5881 62.0927V63.0175L95.461 65.2577V64.3331L91.5881 62.0927Z" fill="#BD8AAE"/>
<path d="M120.817 81.6126V80.6881L96.9141 66.8624V67.787L120.817 81.6126Z" fill="#BD8AAE"/>
<path d="M91.5881 63.7819V64.7064L95.461 66.9466V66.022L91.5881 63.7819Z" fill="#BD8AAE"/>
<path d="M91.5881 65.4707V66.3952L95.461 68.6354V67.7109L91.5881 65.4707Z" fill="#BD8AAE"/>
<path d="M120.817 83.3018V82.3772L96.9141 68.5513V69.4758L120.817 83.3018Z" fill="#BD8AAE"/>
<path d="M91.5881 70.5376V71.4621L95.461 73.7023V72.7778L91.5881 70.5376Z" fill="#BD8AAE"/>
<path d="M91.5881 72.2264V73.151L95.461 75.3912V74.4666L91.5881 72.2264Z" fill="#BD8AAE"/>
<path d="M91.5881 78.9822V79.9067L95.461 82.1469V81.2221L91.5881 78.9822Z" fill="#BD8AAE"/>
<path d="M91.5881 80.6711V81.5957L95.461 83.8358V82.9113L91.5881 80.6711Z" fill="#BD8AAE"/>
<path d="M111.994 92.4741L96.9141 83.7517V84.6765L111.994 93.3986V92.4741Z" fill="#BD8AAE"/>
<path d="M112.788 92.9338V93.8584L120.817 98.5019V97.5777L112.788 92.9338Z" fill="#BD8AAE"/>
<path d="M104.49 86.4451L96.9141 82.0629V82.9874L104.49 87.3696V86.4451Z" fill="#BD8AAE"/>
<path d="M105.285 86.9048V87.8293L120.817 96.813V95.8885L105.285 86.9048Z" fill="#BD8AAE"/>
<path d="M118.774 89.6399V90.5644L120.817 91.7461V90.8219L118.774 89.6399Z" fill="#BD8AAE"/>
<path d="M107.654 81.5196L96.9141 75.3071V76.2317L107.654 82.4442V81.5196Z" fill="#BD8AAE"/>
<path d="M103.253 65.4626L96.9141 61.7958V62.7203L103.253 66.3871V65.4626Z" fill="#BD8AAE"/>
<path d="M113.645 71.4732L104.048 65.9221V66.8469L113.645 72.3977V71.4732Z" fill="#BD8AAE"/>
<path d="M108.052 69.9268L101.295 66.0187V66.9432L108.052 70.8514V69.9268Z" fill="#BD8AAE"/>
<path d="M115.141 74.0272L108.846 70.3866V71.3111L115.141 74.9517V74.0272Z" fill="#BD8AAE"/>
<path d="M115.936 74.4868V75.4117L120.817 78.2348V77.3103L115.936 74.4868Z" fill="#BD8AAE"/>
<path d="M98.1626 65.8958V66.8203L103.253 69.7648V68.8403L98.1626 65.8958Z" fill="#BD8AAE"/>
<path d="M118.825 77.8474L104.048 69.3002V70.2247L118.825 78.772V77.8474Z" fill="#BD8AAE"/>
<path d="M110.365 78.0207L100.708 72.4347V73.3592L110.365 78.9453V78.0207Z" fill="#BD8AAE"/>
<path d="M118.825 82.9143L111.16 78.4801V79.4049L118.825 83.8388V82.9143Z" fill="#BD8AAE"/>
<path d="M117.979 87.4913L108.449 81.9792V82.9038L117.979 88.4158V87.4913Z" fill="#BD8AAE"/>
<path d="M112.788 86.178V87.1025L117.979 90.1047V89.1801L112.788 86.178Z" fill="#BD8AAE"/>
<path d="M98.7832 78.0771L96.9141 76.996V77.9208L98.7832 79.0017V78.0771Z" fill="#BD8AAE"/>
<path d="M102.284 80.1023V81.0268L111.994 86.643V85.7184L102.284 80.1023Z" fill="#BD8AAE"/>
<path d="M101.489 79.6425L99.5779 78.5369V79.4614L101.489 80.567V79.6425Z" fill="#BD8AAE"/>
<path d="M110.197 86.3684L99.5779 80.2257V81.1505L110.197 87.293V86.3684Z" fill="#BD8AAE"/>
<path d="M98.1994 88.2128C98.0997 88.3148 98.0521 88.5129 98.0515 88.8046L98.048 90.1003V90.1334C98.0474 90.3799 97.9685 90.512 97.8117 90.5296C97.6549 90.5472 97.4303 90.4714 97.1409 90.3038L97.1382 91.2056C97.4277 91.3733 97.652 91.5571 97.8082 91.7591C97.9644 91.961 98.042 92.1955 98.0414 92.4631L98.0378 93.7436C98.0369 94.035 98.0834 94.2877 98.1818 94.5073C98.2779 94.7254 98.4314 94.9318 98.6427 95.1293C98.8539 95.3268 99.1457 95.5321 99.5161 95.7466L99.5185 94.8928C99.2784 94.7448 99.1169 94.6001 99.0312 94.4572C98.9455 94.3113 98.9042 94.1427 98.9048 93.9473L98.9083 92.7209V92.6728C98.9098 92.183 98.6418 91.7388 98.0997 91.3315V91.2835C98.6346 91.5031 98.9042 91.3518 98.9137 90.8336L98.917 89.6072C98.9176 89.4088 98.9622 89.29 99.0488 89.2468C99.135 89.2032 99.2969 89.2489 99.5343 89.3775L99.5367 88.5236C99.1716 88.3121 98.8819 88.1808 98.6677 88.1319C98.4505 88.0812 98.2964 88.1092 98.1994 88.2128Z" fill="#CDE9F9"/>
<path d="M103.247 93.6764C103.096 93.4804 103.019 93.2578 103.019 93.0114V92.9783L103.023 91.6826C103.024 91.265 102.915 90.9067 102.691 90.6057C102.47 90.3058 102.087 89.9997 101.539 89.6826L101.537 90.5362C101.774 90.6826 101.938 90.8258 102.024 90.9687C102.11 91.1089 102.151 91.2802 102.151 91.4786L102.147 92.705C102.156 93.234 102.429 93.6994 102.963 94.0988V94.1469C102.697 94.041 102.493 94.0192 102.355 94.0866C102.213 94.1552 102.142 94.3098 102.142 94.5565V94.5923L102.138 95.8187C102.138 96.0171 102.095 96.14 102.009 96.1836C101.923 96.2239 101.758 96.18 101.521 96.0514L101.519 96.905C102.064 97.2206 102.447 97.3555 102.672 97.314C102.894 97.271 103.008 97.0413 103.009 96.6207L103.012 95.3402C103.013 95.0729 103.092 94.9288 103.243 94.9049C103.398 94.8829 103.619 94.9571 103.914 95.1278L103.917 94.2259C103.622 94.0562 103.401 93.8739 103.247 93.6764Z" fill="#CDE9F9"/>
<path d="M106.491 92.8862C106.391 92.9882 106.344 93.1863 106.343 93.4778L106.339 94.7734V94.8065C106.339 95.053 106.26 95.1851 106.103 95.2024C105.946 95.22 105.722 95.1442 105.432 94.9766L105.43 95.8784C105.719 96.0461 105.944 96.2302 106.1 96.4319C106.256 96.6338 106.334 96.8683 106.333 97.1359L106.33 98.4164C106.329 98.7078 106.375 98.9605 106.474 99.1801C106.57 99.3985 106.723 99.6046 106.934 99.8021C107.145 99.9996 107.437 100.205 107.808 100.419L107.81 99.5655C107.57 99.4176 107.409 99.2729 107.323 99.13C107.237 98.9841 107.196 98.8155 107.196 98.6201L107.2 97.3937V97.3456C107.201 96.8558 106.933 96.4116 106.391 96.0043L106.391 95.9563C106.926 96.1759 107.196 96.0249 107.205 95.5064L107.209 94.28C107.209 94.0816 107.254 93.9628 107.34 93.9196C107.426 93.876 107.588 93.9217 107.826 94.0503L107.828 93.1964C107.463 92.9852 107.173 92.8533 106.959 92.8047C106.742 92.7546 106.588 92.7826 106.491 92.8862Z" fill="#CDE9F9"/>
<path d="M111.539 98.3495C111.388 98.1535 111.31 97.931 111.311 97.6845V97.6514L111.314 96.3557C111.316 95.9381 111.207 95.5801 110.983 95.2788C110.762 94.9789 110.378 94.6728 109.831 94.3557L109.828 95.2095C110.066 95.356 110.23 95.4992 110.316 95.6421C110.402 95.7823 110.443 95.9536 110.442 96.152L110.439 97.3784C110.448 97.9074 110.721 98.3725 111.255 98.7723V98.8203C110.989 98.7144 110.785 98.6926 110.647 98.76C110.505 98.8286 110.434 98.9832 110.434 99.2299V99.266L110.43 100.492C110.43 100.691 110.387 100.814 110.301 100.857C110.215 100.898 110.05 100.854 109.813 100.725L109.811 101.579C110.356 101.894 110.739 102.029 110.964 101.988C111.187 101.945 111.3 101.715 111.301 101.294L111.304 100.014C111.305 99.7466 111.384 99.6025 111.535 99.5786C111.69 99.5566 111.912 99.6308 112.206 99.8015L112.209 98.8996C111.914 98.7296 111.693 98.547 111.539 98.3495Z" fill="#CDE9F9"/>
<path d="M27.1802 194.11C12.0148 185.329 12.0148 170.911 27.1802 162.071C42.3455 153.23 67.1615 153.23 82.3269 162.071C97.4922 170.911 97.4922 185.329 82.3269 194.11C67.1615 202.891 42.3455 202.891 27.1802 194.11Z" fill="#2A2F6D"/>
<path d="M35.155 135.541C38.9994 135.541 42.1159 130.669 42.1159 124.658C42.1159 118.648 38.9994 113.776 35.155 113.776C31.3106 113.776 28.1941 118.648 28.1941 124.658C28.1941 130.669 31.3106 135.541 35.155 135.541Z" fill="url(#paint5_linear_239_5820)"/>
<path d="M73.7598 110.481C72.6956 111.931 71.453 113.332 70.0003 114.651C57.228 126.249 43.6733 126.207 37.1753 125.304C35.1003 125.016 33.7098 122.958 34.2569 120.992L35.0476 118.15L34.164 121.326L34.2482 121.018C34.6748 119.457 36.1936 118.485 37.8388 118.717C42.9944 119.444 54.4047 119.576 65.3322 109.653C72.4309 103.207 73.2064 93.922 73.0889 89.257C73.0467 87.5848 74.2417 86.1851 75.9095 85.9852C77.9287 85.7429 79.7711 87.3303 79.8243 89.3548C79.9528 94.2493 79.2567 102.991 73.7598 110.481Z" fill="#CDE9F9"/>
<path d="M80.1631 70.8816C80.1631 70.8816 72.6831 74.5565 71.452 81.1114C70.2213 87.6664 74.5767 94.3207 80.1631 93.9233C85.7496 93.526 91.0519 88.6596 91.0519 88.6596L87.9273 81.5088C87.9273 81.5088 84.4037 85.4543 81.1473 85.6169C77.8908 85.7795 75.6819 79.0258 82.6568 75.947L80.1631 70.8816Z" fill="url(#paint6_linear_239_5820)"/>
<path d="M92.6744 166.969V152.703L81.0437 154.104C75.847 151.883 69.4665 150.797 62.7096 150.797V151.367C63.7869 151.367 64.8499 151.396 65.8965 151.452C61.8344 151.381 57.1125 151.643 51.7369 152.281C55.3617 151.682 59.0507 151.367 62.7073 151.367L62.7096 150.797C62.7088 150.797 62.7082 150.797 62.7073 150.797C51.6566 150.798 39.6079 153.697 30.1283 159.262C29.4563 159.656 28.8155 160.061 28.1892 160.47L15.6963 161.975V178.964C15.6963 178.964 15.7085 178.968 15.7281 178.976C15.9426 183.59 18.6856 187.872 24.1105 191.057C29.766 194.377 37.4507 195.989 45.6917 195.989C56.7421 195.989 68.7912 193.089 78.2707 187.524C87.7836 181.939 92.7125 174.839 92.6783 168.332C92.7292 167.467 92.6744 166.969 92.6744 166.969ZM37.8145 194.881C36.0887 194.637 34.4281 194.313 32.8475 193.91C34.5518 194.313 36.2066 194.629 37.8145 194.881ZM32.6589 193.864C32.594 193.847 32.5294 193.83 32.4649 193.813C32.5309 193.83 32.5922 193.848 32.6589 193.864Z" fill="#2A2F6D"/>
<path d="M88.0355 135.03L89.604 145.845L79.3789 164.994" stroke="#C4CACB" stroke-width="5" stroke-miterlimit="10"/>
<path d="M35.1512 135.03L32.3562 130.966C32.3562 130.966 34.3399 120.067 37.5547 118.466C43.4161 115.546 58.6546 114.406 66.2376 120.19C73.8205 125.973 72.256 143.264 75.7215 142.636C79.1871 142.009 85.2525 138.602 85.2525 138.602C85.2525 138.602 88.5807 138.419 87.9577 143.668C87.9577 143.668 78.4098 156.523 71.2858 157.279C64.1619 158.035 57.1454 147.517 57.1454 147.517L35.1512 135.03Z" fill="#BD8AAE"/>
<path d="M82.7215 164.728C82.7215 164.728 74.0642 129.948 68.5545 128.748C63.8475 127.722 33.3944 126.638 24.6224 126.344C22.8829 126.286 21.2407 127.181 20.3851 128.701C19.4694 130.328 18.6813 132.702 19.2787 135.619C20.4499 141.336 28.5634 157.521 24.0036 169.777C24.0033 169.777 43.4654 181.045 82.7215 164.728Z" fill="#222457"/>
<path d="M88.2731 137.8C89.4109 137.8 90.3333 136.875 90.3333 135.734C90.3333 134.593 89.4109 133.668 88.2731 133.668C87.1353 133.668 86.2129 134.593 86.2129 135.734C86.2129 136.875 87.1353 137.8 88.2731 137.8Z" fill="#2A2F6D"/>
<path d="M52.0609 105.895C52.0609 105.895 51.7676 105.054 51.0548 104.928C50.342 104.802 50.4259 108.334 51.0548 109.09C51.6837 109.847 52.0609 109.468 52.0609 109.468C52.0609 109.468 52.019 111.528 50.7611 112.453C49.5033 113.378 50.6505 114.766 47.7082 114.766C44.7659 114.766 40.9927 113.588 39.6929 112.243C38.3931 110.898 37.6283 105.685 40.7779 102.91C40.7779 102.91 39.651 96.7716 47.0299 95.9309C54.4085 95.0902 55.331 95.5106 56.1694 94.5016C57.0078 93.4927 56.9242 92.9041 56.9242 92.9041C56.9242 92.9041 57.5132 95.9309 56.6317 96.6037C56.6317 96.6037 57.18 97.1082 57.5132 95.9309C57.5132 95.9309 57.9166 98.7899 56.6237 100.808C55.331 102.826 52.564 104.592 52.0609 105.895Z" fill="#2A2F6D"/>
<path d="M52.474 184.48C50.4668 184.48 48.3108 184.436 45.6883 184.34C36.1683 183.995 31.5717 182.817 24.3037 178.862C19.0951 176.028 16.1987 171.709 16.1481 166.7H16.1228V62.9328L16.1472 62.9325C16.1302 59.6401 17.4273 55.6111 19.7059 51.8783C21.5301 48.8896 24.855 44.6515 30.3341 41.4325C39.7916 35.8763 51.993 35.4106 62.6872 35.41C72.2822 35.4097 80.1859 39.2111 84.043 41.4769C86.2564 42.7771 88.0464 44.2822 89.3813 45.9505L88.9359 46.2956C89.3343 46.8335 89.6874 47.341 90.0159 47.8473L90.4919 47.5498C91.332 48.9636 91.8741 50.4735 92.1008 52.0576L92.1213 52.2008L92.1153 52.2175L92.1278 52.3202C92.2057 52.9664 92.2328 53.6176 92.2078 54.2558L92.2031 54.3763L92.2328 54.4324V165.327L92.2096 165.327C92.0591 171.587 87.571 176.275 78.0849 180.081C70.4023 183.164 62.7428 184.48 52.474 184.48Z" fill="url(#paint7_linear_239_5820)"/>
<path d="M62.6889 35.8579C72.178 35.8579 79.9998 39.6205 83.8177 41.8636C85.9772 43.1325 87.7226 44.5976 89.0224 46.2184L88.5777 46.563C88.971 47.094 89.319 47.5943 89.6418 48.0919L90.1169 47.7951C90.9226 49.1546 91.4417 50.6036 91.6592 52.1221L91.6642 52.1576L91.6601 52.1696L91.6848 52.3748C91.7597 52.9971 91.7859 53.6242 91.7618 54.2388L91.7526 54.4766L91.7865 54.5416V164.599L91.7618 164.599L91.763 165.328C91.6122 171.381 87.213 175.937 77.9191 179.666C70.2918 182.726 62.6821 184.032 52.4739 184.032C50.4721 184.032 48.3211 183.988 45.7043 183.893C36.2664 183.55 31.712 182.384 24.5164 178.469C19.4565 175.715 16.643 171.534 16.5942 166.695H16.569V62.9304L16.5934 62.9301C16.577 59.7189 17.85 55.7758 20.0863 52.112C21.8838 49.1671 25.1602 44.9905 30.5595 41.8186C39.9206 36.3191 52.0515 35.8582 62.6871 35.8576H62.6889V35.8579ZM62.6889 34.9629C62.6883 34.9629 62.688 34.9629 62.6874 34.9629C51.6371 34.9635 39.588 35.4775 30.1088 41.0465C20.5968 46.6346 15.6678 56.4247 15.7011 62.9349L15.6768 60.2526V168.713L15.7021 166.705C15.7502 171.497 18.3813 176.149 24.091 179.256C31.4928 183.283 36.2748 184.446 45.6725 184.787C48.0147 184.872 50.2745 184.927 52.4745 184.927C61.4754 184.927 69.4948 184.01 78.2514 180.497C88.2397 176.49 92.5068 171.571 92.6564 165.338L92.6552 164.598C92.662 164.847 92.6623 165.093 92.6564 165.338L92.6799 178.64V54.3328C92.6689 54.3131 92.6647 54.2934 92.6546 54.2737C92.6811 53.598 92.6516 52.9288 92.5719 52.2671C92.6293 52.1007 92.6799 51.9947 92.6799 51.9947H92.5433C91.9474 47.833 89.2268 44.0036 84.2693 41.0913C78.6138 37.769 70.9294 34.9629 62.6889 34.9629ZM90.3903 47.6039C90.0771 47.1206 89.7177 46.6006 89.2946 46.0293C89.7034 46.5394 90.0696 47.0645 90.3903 47.6039Z" fill="#FDFEFE"/>
<g opacity="0.5">
<path opacity="0.5" d="M22.1553 173.912V65.3707C22.1553 65.3707 28.9427 54.3869 40.6092 55.5638C52.2756 56.7408 54.1585 63.4094 54.1585 63.4094V184.229C54.1585 184.229 54.6101 179.25 52.7141 180.269C46.9721 183.358 34.4483 187.95 26.7335 174.82C25.6348 172.951 23.0255 176.557 22.1553 173.912Z" fill="url(#paint8_linear_239_5820)"/>
</g>
<path d="M71.1855 146.394C75.0299 146.394 78.1464 141.522 78.1464 135.512C78.1464 129.502 75.0299 124.63 71.1855 124.63C67.3411 124.63 64.2246 129.502 64.2246 135.512C64.2246 141.522 67.3411 146.394 71.1855 146.394Z" fill="url(#paint9_linear_239_5820)"/>
<path d="M102.452 157.978C100.656 157.978 98.7942 157.805 96.8735 157.414C79.9883 153.973 71.987 143.001 68.8603 137.218C67.8619 135.371 68.6907 133.028 70.5938 132.304L73.3445 131.259L70.2704 132.427L70.5677 132.313C72.0742 131.732 73.7554 132.382 74.544 133.849C77.016 138.444 83.6737 147.737 98.1203 150.681C107.506 152.592 115.422 147.715 119.099 144.855C120.417 143.829 122.249 143.965 123.399 145.193C124.79 146.68 124.608 149.11 123.013 150.352C119.159 153.358 111.725 157.978 102.452 157.978Z" fill="#CDE9F9"/>
<path d="M125.397 132.496C125.397 132.496 117.917 136.171 116.686 142.726C115.455 149.281 119.811 155.936 125.397 155.538C130.984 155.141 136.286 150.274 136.286 150.274L133.161 143.124C133.161 143.124 129.638 147.069 126.381 147.232C123.125 147.394 120.916 140.641 127.891 137.562L125.397 132.496Z" fill="url(#paint10_linear_239_5820)"/>
<path d="M92.6796 168.746H92.1152V181.657H92.6796V168.746Z" fill="#2A2F6D"/>
<path d="M126.637 174.183H92.1753V211.046H126.637V174.183Z" fill="url(#paint11_linear_239_5820)"/>
<path d="M109.406 220.371C118.941 220.371 126.671 215.895 126.671 210.374C126.671 204.854 118.941 200.378 109.406 200.378C99.8712 200.378 92.1416 204.854 92.1416 210.374C92.1416 215.895 99.8712 220.371 109.406 220.371Z" fill="#3C7FBE"/>
<path d="M109.406 184.506C118.941 184.506 126.671 180.031 126.671 174.51C126.671 168.989 118.941 164.514 109.406 164.514C99.8712 164.514 92.1416 168.989 92.1416 174.51C92.1416 180.031 99.8712 184.506 109.406 184.506Z" fill="#17A1DB"/>
<path d="M106.992 164.649L106.987 163.734L106.984 164.581L106.989 165.497L106.992 164.649Z" fill="#2A2F6D"/>
<path d="M115.381 165.751L114.269 166.398L114.267 167.245L115.378 166.598L115.381 165.751Z" fill="#2A2F6D"/>
<path d="M102.454 166.398L101.336 165.751L101.334 166.598L102.452 167.245L102.454 166.398Z" fill="#2A2F6D"/>
<path d="M104.826 169.332C104.832 169.302 104.841 169.272 104.849 169.241C104.859 169.205 104.867 169.169 104.88 169.134C104.89 169.104 104.904 169.075 104.917 169.047C104.933 169.009 104.949 168.972 104.969 168.935C104.983 168.908 105.001 168.882 105.017 168.856C105.043 168.814 105.07 168.772 105.1 168.731C105.118 168.706 105.138 168.683 105.158 168.659C105.204 168.603 105.254 168.549 105.309 168.496C105.329 168.476 105.347 168.456 105.368 168.438C105.402 168.407 105.441 168.377 105.478 168.347C105.511 168.32 105.542 168.294 105.578 168.268C105.618 168.238 105.662 168.21 105.706 168.182C105.751 168.152 105.793 168.122 105.841 168.094C105.948 168.032 106.062 167.976 106.178 167.924C106.212 167.909 106.245 167.894 106.28 167.88C106.371 167.842 106.465 167.806 106.56 167.774C106.594 167.762 106.628 167.749 106.663 167.738C106.723 167.719 106.785 167.703 106.846 167.686C106.893 167.673 106.939 167.659 106.987 167.648C107.051 167.632 107.117 167.619 107.183 167.606C107.228 167.597 107.273 167.587 107.319 167.578C107.452 167.555 107.588 167.536 107.725 167.522C107.767 167.517 107.809 167.515 107.851 167.511C107.931 167.504 108.011 167.499 108.092 167.495C108.144 167.493 108.196 167.492 108.247 167.49C108.312 167.489 108.377 167.489 108.442 167.49C108.497 167.49 108.551 167.492 108.606 167.494C108.666 167.496 108.727 167.5 108.787 167.504C108.842 167.508 108.897 167.513 108.951 167.518C109.011 167.523 109.07 167.53 109.13 167.538C109.183 167.544 109.236 167.552 109.289 167.56C109.353 167.57 109.416 167.581 109.479 167.593C109.528 167.603 109.578 167.613 109.627 167.623C109.701 167.64 109.775 167.658 109.848 167.678C109.889 167.688 109.93 167.699 109.97 167.711C110.101 167.749 110.229 167.792 110.353 167.84C110.415 167.864 110.474 167.891 110.533 167.917C110.564 167.931 110.596 167.943 110.626 167.957C110.716 168 110.803 168.046 110.888 168.094C111.59 168.501 111.941 169.035 111.94 169.568L111.942 168.721C111.944 168.188 111.593 167.654 110.89 167.247C110.806 167.198 110.718 167.153 110.628 167.11C110.598 167.096 110.566 167.083 110.535 167.07C110.482 167.046 110.43 167.021 110.375 166.999C110.369 166.997 110.362 166.995 110.355 166.993C110.231 166.945 110.103 166.902 109.972 166.863C109.962 166.86 109.952 166.856 109.942 166.853C109.912 166.844 109.881 166.838 109.851 166.83C109.777 166.811 109.704 166.792 109.629 166.776C109.609 166.771 109.59 166.765 109.57 166.761C109.541 166.755 109.51 166.751 109.481 166.746C109.418 166.734 109.355 166.723 109.292 166.713C109.266 166.709 109.242 166.703 109.216 166.7C109.188 166.696 109.16 166.694 109.132 166.69C109.073 166.683 109.014 166.676 108.954 166.67C108.925 166.667 108.897 166.663 108.869 166.661C108.843 166.658 108.816 166.658 108.789 166.656C108.729 166.652 108.669 166.649 108.608 166.646C108.578 166.645 108.548 166.642 108.517 166.641C108.493 166.641 108.469 166.642 108.445 166.642C108.38 166.641 108.314 166.641 108.249 166.643C108.217 166.643 108.184 166.642 108.152 166.643C108.133 166.644 108.114 166.646 108.095 166.647C108.014 166.651 107.934 166.657 107.854 166.663C107.821 166.666 107.789 166.666 107.757 166.67C107.747 166.671 107.737 166.673 107.727 166.674C107.59 166.688 107.455 166.707 107.321 166.731C107.315 166.732 107.308 166.732 107.302 166.733C107.263 166.74 107.226 166.75 107.188 166.758C107.121 166.771 107.055 166.785 106.989 166.8C106.942 166.812 106.896 166.825 106.85 166.838C106.788 166.855 106.726 166.872 106.666 166.891C106.653 166.895 106.639 166.898 106.626 166.902C106.605 166.909 106.585 166.919 106.563 166.926C106.467 166.959 106.374 166.994 106.283 167.033C106.248 167.047 106.214 167.061 106.181 167.076C106.065 167.129 105.951 167.184 105.845 167.247C105.83 167.255 105.816 167.264 105.801 167.273C105.769 167.292 105.741 167.314 105.71 167.334C105.666 167.362 105.621 167.391 105.581 167.42C105.546 167.446 105.514 167.473 105.481 167.499C105.444 167.529 105.406 167.559 105.371 167.59C105.365 167.596 105.356 167.602 105.349 167.608C105.335 167.621 105.326 167.635 105.312 167.648C105.257 167.702 105.207 167.756 105.161 167.811C105.151 167.823 105.138 167.835 105.128 167.847C105.118 167.859 105.113 167.871 105.103 167.884C105.073 167.925 105.045 167.967 105.019 168.008C105.008 168.026 104.994 168.043 104.984 168.061C104.979 168.07 104.976 168.079 104.972 168.088C104.952 168.125 104.936 168.162 104.919 168.199C104.91 168.221 104.897 168.242 104.889 168.264C104.886 168.272 104.885 168.279 104.883 168.287C104.87 168.322 104.861 168.358 104.852 168.393C104.846 168.417 104.836 168.441 104.831 168.466C104.83 168.472 104.831 168.479 104.829 168.485C104.822 168.523 104.819 168.56 104.816 168.598C104.814 168.622 104.809 168.647 104.808 168.671C104.808 168.682 104.807 168.692 104.807 168.703L104.805 169.55C104.805 169.515 104.811 169.48 104.814 169.445C104.817 169.407 104.82 169.37 104.826 169.332Z" fill="#2A2F6D"/>
<path d="M115.373 169.502C115.357 169.553 115.337 169.604 115.317 169.654C115.303 169.689 115.289 169.724 115.273 169.758C115.259 169.79 115.245 169.823 115.229 169.855C115.212 169.889 115.194 169.923 115.176 169.957C115.159 169.989 115.142 170.02 115.124 170.051C115.101 170.09 115.076 170.129 115.052 170.169C115.033 170.197 115.015 170.226 114.995 170.255C114.968 170.295 114.938 170.335 114.908 170.375C114.889 170.401 114.87 170.427 114.849 170.453C114.791 170.527 114.729 170.6 114.663 170.671C114.654 170.681 114.645 170.69 114.635 170.7C114.577 170.762 114.515 170.824 114.451 170.884C114.401 170.932 114.35 170.979 114.296 171.026L114.293 171.873C114.338 171.835 114.381 171.796 114.423 171.757C114.432 171.748 114.44 171.74 114.449 171.731C114.513 171.671 114.574 171.61 114.632 171.548C114.642 171.538 114.652 171.528 114.661 171.518C114.727 171.447 114.788 171.374 114.847 171.301C114.852 171.294 114.858 171.288 114.862 171.282C114.878 171.262 114.891 171.242 114.907 171.221C114.936 171.182 114.966 171.142 114.993 171.102C115.013 171.073 115.031 171.044 115.05 171.015C115.075 170.976 115.099 170.937 115.122 170.898C115.13 170.885 115.139 170.872 115.146 170.859C115.157 170.841 115.165 170.822 115.175 170.804C115.193 170.77 115.21 170.736 115.227 170.702C115.243 170.67 115.258 170.637 115.272 170.605C115.287 170.57 115.302 170.536 115.315 170.502C115.321 170.486 115.329 170.471 115.335 170.456C115.348 170.42 115.361 170.384 115.372 170.349H116.948L116.951 169.502H115.373Z" fill="#2A2F6D"/>
<path d="M102.478 171.873L102.48 171.026C101.932 170.557 101.566 170.038 101.385 169.502H99.809L99.8066 170.349H101.383C101.564 170.886 101.929 171.405 102.478 171.873Z" fill="#2A2F6D"/>
<path d="M112.378 172.143C112.189 172.218 111.994 172.285 111.796 172.348C111.687 172.383 111.574 172.412 111.463 172.443C111.358 172.471 111.256 172.503 111.149 172.529C111.036 172.556 110.919 172.579 110.804 172.602C110.697 172.625 110.59 172.649 110.482 172.669C110.243 172.711 110.002 172.747 109.758 172.774L109.755 173.622C109.999 173.594 110.241 173.558 110.479 173.516C110.491 173.514 110.503 173.513 110.515 173.511C110.613 173.493 110.707 173.469 110.804 173.449C110.919 173.425 111.034 173.403 111.147 173.376C111.254 173.35 111.357 173.318 111.462 173.289C111.573 173.258 111.685 173.229 111.794 173.195C111.806 173.191 111.82 173.188 111.833 173.184C112.018 173.124 112.198 173.06 112.375 172.99L113.493 173.637L115.411 172.52L115.414 171.673L113.496 172.79L112.378 172.143Z" fill="#2A2F6D"/>
<path d="M107.037 172.774C106.867 172.755 106.698 172.729 106.53 172.702C106.409 172.683 106.288 172.662 106.169 172.639C106.065 172.619 105.96 172.598 105.857 172.575C105.715 172.544 105.574 172.509 105.435 172.472C105.325 172.442 105.215 172.414 105.107 172.382C105.059 172.367 105.011 172.352 104.964 172.337C104.776 172.277 104.591 172.214 104.412 172.144C104.412 172.144 104.411 172.143 104.411 172.143L103.298 172.792L101.368 171.674L101.365 172.521L103.296 173.639L104.408 172.991C104.588 173.061 104.774 173.124 104.961 173.185C105.009 173.2 105.057 173.214 105.105 173.229C105.153 173.244 105.2 173.26 105.249 173.274C105.309 173.291 105.372 173.303 105.432 173.319C105.572 173.356 105.712 173.391 105.855 173.423C105.901 173.433 105.946 173.447 105.992 173.456C106.049 173.468 106.109 173.476 106.166 173.487C106.286 173.51 106.406 173.531 106.528 173.55C106.583 173.558 106.637 173.571 106.692 173.578C106.806 173.594 106.92 173.609 107.034 173.622L107.035 173.622L107.04 174.538H109.761L109.763 173.69H107.042L107.037 172.774Z" fill="#2A2F6D"/>
<path d="M113.496 172.791L112.378 172.143C111.573 172.46 110.681 172.671 109.758 172.774L109.763 173.69H107.042L107.037 172.774C106.113 172.671 105.218 172.46 104.41 172.143L103.298 172.792L101.367 171.674L102.48 171.026C101.932 170.557 101.566 170.038 101.385 169.502H99.8087L99.7998 167.922H101.376C101.551 167.386 101.912 166.868 102.454 166.398L101.336 165.751L103.254 164.633L104.372 165.28C105.178 164.965 106.069 164.753 106.992 164.649L106.987 163.734H109.707L109.712 164.649C110.636 164.753 111.529 164.964 112.339 165.28L113.45 164.633L115.38 165.751L114.27 166.398C114.816 166.868 115.184 167.386 115.365 167.922H116.941L116.95 169.503H115.374C115.198 170.039 114.839 170.558 114.296 171.026L115.414 171.673L113.496 172.791ZM105.86 170.178C107.258 170.988 109.515 170.986 110.904 170.177C112.293 169.368 112.287 168.057 110.889 167.248C109.492 166.438 107.233 166.438 105.844 167.248C104.455 168.057 104.463 169.369 105.86 170.178Z" fill="white"/>
<path d="M110.339 174.092L110.335 173.344L110.333 174.036L110.337 174.784L110.339 174.092Z" fill="#BD8AAE"/>
<path d="M117.192 174.992L116.284 175.521L116.283 176.213L117.19 175.684L117.192 174.992Z" fill="#BD8AAE"/>
<path d="M106.632 175.521L105.718 174.992L105.716 175.684L106.629 176.213L106.632 175.521Z" fill="#BD8AAE"/>
<path d="M108.57 177.918C108.574 177.893 108.582 177.868 108.588 177.843C108.596 177.814 108.603 177.785 108.613 177.756C108.622 177.732 108.633 177.709 108.643 177.685C108.656 177.654 108.67 177.624 108.686 177.594C108.698 177.572 108.712 177.55 108.725 177.529C108.746 177.494 108.769 177.46 108.794 177.427C108.808 177.407 108.825 177.387 108.841 177.368C108.878 177.323 108.919 177.278 108.964 177.235C108.98 177.219 108.995 177.203 109.012 177.187C109.04 177.162 109.071 177.138 109.102 177.113C109.129 177.091 109.154 177.069 109.183 177.048C109.216 177.024 109.252 177.001 109.288 176.978C109.325 176.954 109.359 176.93 109.399 176.907C109.486 176.856 109.579 176.811 109.674 176.767C109.701 176.755 109.729 176.743 109.756 176.732C109.831 176.701 109.907 176.672 109.986 176.645C110.014 176.635 110.041 176.625 110.07 176.616C110.119 176.6 110.169 176.587 110.219 176.573C110.257 176.562 110.295 176.551 110.334 176.542C110.387 176.529 110.441 176.518 110.494 176.507C110.531 176.5 110.568 176.491 110.605 176.485C110.714 176.465 110.825 176.45 110.936 176.439C110.971 176.435 111.005 176.433 111.04 176.43C111.105 176.424 111.171 176.419 111.237 176.417C111.279 176.415 111.321 176.414 111.363 176.413C111.417 176.412 111.47 176.412 111.523 176.413C111.568 176.413 111.612 176.414 111.657 176.416C111.706 176.418 111.756 176.421 111.805 176.424C111.85 176.427 111.894 176.431 111.939 176.435C111.988 176.44 112.036 176.445 112.085 176.452C112.128 176.457 112.172 176.463 112.215 176.47C112.267 176.478 112.318 176.488 112.369 176.497C112.41 176.505 112.45 176.513 112.49 176.522C112.551 176.535 112.611 176.55 112.671 176.566C112.704 176.575 112.738 176.584 112.771 176.593C112.878 176.624 112.982 176.66 113.084 176.699C113.134 176.718 113.182 176.74 113.231 176.762C113.256 176.773 113.282 176.783 113.306 176.795C113.38 176.83 113.452 176.867 113.52 176.907C114.094 177.239 114.381 177.675 114.38 178.111L114.382 177.419C114.383 176.983 114.096 176.547 113.522 176.215C113.453 176.175 113.382 176.138 113.308 176.103C113.283 176.091 113.258 176.081 113.232 176.07C113.189 176.05 113.146 176.03 113.101 176.012C113.096 176.01 113.091 176.009 113.085 176.007C112.984 175.967 112.879 175.932 112.772 175.901C112.764 175.899 112.756 175.895 112.747 175.893C112.723 175.886 112.698 175.881 112.673 175.874C112.613 175.858 112.553 175.843 112.492 175.83C112.475 175.826 112.46 175.821 112.444 175.818C112.42 175.813 112.395 175.81 112.371 175.805C112.32 175.795 112.269 175.786 112.217 175.778C112.196 175.775 112.176 175.77 112.155 175.767C112.132 175.764 112.109 175.763 112.087 175.76C112.038 175.753 111.99 175.748 111.941 175.743C111.918 175.741 111.895 175.737 111.872 175.735C111.85 175.734 111.828 175.733 111.806 175.732C111.757 175.729 111.708 175.726 111.658 175.724C111.634 175.723 111.609 175.72 111.584 175.72C111.565 175.719 111.545 175.72 111.526 175.72C111.472 175.72 111.418 175.72 111.365 175.721C111.339 175.721 111.312 175.72 111.286 175.721C111.271 175.722 111.255 175.723 111.239 175.724C111.173 175.727 111.108 175.732 111.042 175.737C111.016 175.74 110.989 175.74 110.963 175.743C110.954 175.743 110.947 175.745 110.939 175.746C110.827 175.758 110.716 175.773 110.607 175.792C110.602 175.793 110.596 175.794 110.591 175.795C110.56 175.8 110.529 175.809 110.498 175.815C110.444 175.826 110.389 175.837 110.336 175.85C110.297 175.859 110.26 175.87 110.222 175.88C110.171 175.894 110.121 175.908 110.071 175.923C110.061 175.927 110.05 175.929 110.039 175.933C110.021 175.938 110.005 175.946 109.988 175.952C109.91 175.979 109.833 176.008 109.758 176.039C109.73 176.051 109.703 176.063 109.675 176.075C109.58 176.118 109.488 176.164 109.401 176.214C109.388 176.221 109.377 176.228 109.365 176.235C109.338 176.252 109.315 176.269 109.29 176.286C109.254 176.309 109.218 176.332 109.185 176.356C109.156 176.377 109.13 176.399 109.104 176.42C109.073 176.445 109.042 176.469 109.014 176.495C109.008 176.5 109.002 176.505 108.996 176.51C108.985 176.52 108.977 176.532 108.966 176.542C108.921 176.586 108.88 176.63 108.842 176.675C108.834 176.685 108.823 176.695 108.815 176.705C108.808 176.715 108.803 176.725 108.795 176.735C108.77 176.768 108.748 176.802 108.727 176.837C108.718 176.851 108.706 176.865 108.698 176.879C108.694 176.886 108.692 176.894 108.688 176.901C108.672 176.931 108.658 176.962 108.645 176.992C108.637 177.01 108.627 177.027 108.62 177.045C108.618 177.051 108.618 177.058 108.615 177.064C108.605 177.093 108.598 177.121 108.59 177.151C108.585 177.171 108.577 177.19 108.573 177.21C108.572 177.215 108.572 177.221 108.571 177.226C108.566 177.256 108.564 177.287 108.561 177.318C108.559 177.338 108.555 177.357 108.554 177.377C108.554 177.386 108.554 177.395 108.554 177.403L108.552 178.095C108.552 178.067 108.557 178.038 108.559 178.009C108.562 177.979 108.564 177.949 108.57 177.918Z" fill="#BD8AAE"/>
<path d="M117.187 178.057C117.173 178.099 117.157 178.14 117.14 178.182C117.129 178.21 117.117 178.238 117.105 178.266C117.093 178.293 117.081 178.319 117.068 178.345C117.054 178.373 117.04 178.401 117.025 178.429C117.011 178.455 116.997 178.48 116.983 178.505C116.964 178.538 116.944 178.57 116.923 178.602C116.908 178.625 116.893 178.649 116.877 178.672C116.855 178.705 116.83 178.737 116.806 178.77C116.79 178.791 116.774 178.813 116.757 178.834C116.71 178.894 116.659 178.954 116.605 179.012C116.598 179.02 116.59 179.028 116.583 179.035C116.535 179.086 116.485 179.137 116.432 179.186C116.391 179.225 116.349 179.264 116.305 179.302L116.303 179.994C116.34 179.963 116.375 179.931 116.409 179.899C116.417 179.893 116.423 179.885 116.43 179.878C116.483 179.829 116.533 179.779 116.58 179.728C116.587 179.72 116.596 179.712 116.603 179.704C116.657 179.646 116.708 179.586 116.755 179.527C116.759 179.521 116.764 179.517 116.768 179.512C116.781 179.495 116.792 179.478 116.804 179.462C116.828 179.43 116.852 179.397 116.875 179.364C116.891 179.341 116.906 179.317 116.921 179.294C116.941 179.262 116.962 179.23 116.98 179.197C116.987 179.187 116.994 179.177 117 179.166C117.008 179.151 117.015 179.136 117.023 179.121C117.038 179.093 117.052 179.066 117.066 179.038C117.079 179.011 117.091 178.984 117.103 178.958C117.115 178.93 117.127 178.902 117.138 178.874C117.143 178.861 117.149 178.849 117.154 178.836C117.165 178.807 117.175 178.778 117.184 178.749H118.472L118.474 178.057H117.187Z" fill="#BD8AAE"/>
<path d="M106.651 179.994L106.653 179.302C106.205 178.919 105.906 178.495 105.758 178.057H104.47L104.468 178.749H105.756C105.904 179.187 106.203 179.612 106.651 179.994Z" fill="#BD8AAE"/>
<path d="M114.739 180.215C114.585 180.276 114.425 180.331 114.264 180.382C114.175 180.41 114.083 180.434 113.992 180.459C113.907 180.483 113.822 180.508 113.736 180.53C113.643 180.552 113.548 180.57 113.453 180.59C113.366 180.608 113.279 180.628 113.19 180.644C112.996 180.678 112.798 180.708 112.599 180.73L112.597 181.422C112.796 181.4 112.993 181.371 113.188 181.336C113.198 181.334 113.208 181.333 113.217 181.332C113.297 181.317 113.375 181.298 113.453 181.281C113.547 181.262 113.641 181.244 113.733 181.221C113.821 181.2 113.905 181.174 113.991 181.15C114.082 181.125 114.173 181.102 114.262 181.074C114.272 181.07 114.283 181.068 114.294 181.065C114.445 181.016 114.593 180.963 114.737 180.906L115.651 181.435L117.218 180.522L117.219 179.83L115.653 180.744L114.739 180.215Z" fill="#BD8AAE"/>
<path d="M110.376 180.73C110.237 180.715 110.099 180.693 109.961 180.671C109.862 180.656 109.764 180.639 109.667 180.62C109.581 180.604 109.496 180.586 109.412 180.568C109.295 180.542 109.18 180.513 109.067 180.483C108.977 180.459 108.887 180.436 108.799 180.409C108.76 180.397 108.72 180.385 108.682 180.373C108.529 180.324 108.378 180.272 108.231 180.215L108.23 180.215L107.321 180.744L105.744 179.831L105.742 180.523L107.319 181.436L108.228 180.906C108.375 180.964 108.527 181.016 108.68 181.065C108.719 181.077 108.758 181.089 108.797 181.101C108.836 181.113 108.875 181.127 108.915 181.138C108.964 181.152 109.015 181.161 109.065 181.175C109.179 181.205 109.293 181.234 109.41 181.259C109.448 181.268 109.484 181.279 109.522 181.287C109.569 181.296 109.617 181.303 109.664 181.312C109.762 181.33 109.861 181.347 109.96 181.363C110.004 181.37 110.049 181.38 110.094 181.386C110.187 181.399 110.28 181.411 110.373 181.422H110.374L110.378 182.17H112.601L112.603 181.477H110.38L110.376 180.73Z" fill="#BD8AAE"/>
<path d="M115.652 180.744L114.739 180.215C114.082 180.474 113.352 180.646 112.599 180.73L112.603 181.478H110.38L110.376 180.73C109.621 180.646 108.89 180.474 108.23 180.215L107.321 180.744L105.744 179.831L106.652 179.302C106.204 178.919 105.906 178.495 105.758 178.057H104.47L104.463 176.766H105.75C105.894 176.327 106.189 175.904 106.631 175.521L105.718 174.992L107.285 174.078L108.198 174.607C108.857 174.349 109.585 174.176 110.339 174.092L110.334 173.344H112.557L112.561 174.092C113.316 174.176 114.046 174.349 114.707 174.607L115.615 174.078L117.192 174.992L116.284 175.521C116.731 175.904 117.031 176.327 117.179 176.766H118.467L118.474 178.057H117.186C117.043 178.495 116.749 178.919 116.306 179.302L117.219 179.831L115.652 180.744ZM109.414 178.609C110.557 179.27 112.4 179.27 113.535 178.608C114.67 177.947 114.665 176.876 113.523 176.215C112.381 175.554 110.535 175.554 109.401 176.215C108.266 176.876 108.272 177.948 109.414 178.609Z" fill="white"/>
<path d="M188.115 174.347L160.997 158.654C160.167 158.175 159.216 158.196 158.282 158.763L158.282 158.762L152.327 162.21L155.095 165.974L156.127 167.16V194.101C156.127 195.705 156.98 197.187 158.365 197.991L178.661 209.758L178.869 210.889L183.01 216.709L189.38 212.954C189.392 212.948 189.402 212.942 189.413 212.935L189.456 212.911V212.907C190.024 212.552 190.426 211.926 190.426 211.157L190.427 178.36C190.427 176.704 189.546 175.173 188.115 174.347Z" fill="url(#paint12_linear_239_5820)"/>
<path d="M181.776 178.083L154.338 162.207C152.999 161.433 151.326 162.402 151.326 163.952V196.888C151.326 198.491 152.179 199.974 153.564 200.777L180.999 216.682C182.371 217.478 184.088 216.485 184.088 214.895L184.089 182.097C184.089 180.441 183.207 178.91 181.776 178.083Z" fill="url(#paint13_linear_239_5820)"/>
<path d="M183.051 216.686L183.011 216.71L183.007 216.705C183.021 216.697 183.037 216.694 183.051 216.686Z" fill="url(#paint14_linear_239_5820)"/>
<path d="M184.089 214.894L184.089 182.097C184.089 181.544 183.959 181.02 183.775 180.517L190.139 176.84C190.309 177.326 190.428 177.83 190.428 178.36L190.427 211.157C190.427 211.926 190.025 212.552 189.456 212.907V212.91L189.413 212.935C189.403 212.941 189.392 212.948 189.381 212.954L183.065 216.677C183.663 216.329 184.089 215.686 184.089 214.894Z" fill="url(#paint15_linear_239_5820)"/>
<path d="M184.995 227.909L184.768 226.672L164.293 214.802C163.05 214.081 162.278 212.739 162.278 211.299V184.19L161.149 182.892L158.688 179.545L163.968 176.488L163.973 176.491L164.219 176.344C164.637 176.089 165.057 175.961 165.468 175.961C165.817 175.961 166.157 176.055 166.479 176.241L193.596 191.933C194.886 192.678 195.686 194.067 195.686 195.559L195.686 228.356C195.686 228.924 195.408 229.423 194.924 229.726L194.859 229.767L188.842 233.314L184.995 227.909Z" fill="url(#paint16_linear_239_5820)"/>
<path d="M165.468 176.408C165.738 176.408 166.003 176.482 166.256 176.628L193.374 192.321C194.525 192.986 195.24 194.226 195.24 195.559L195.239 228.356C195.239 228.766 195.038 229.127 194.689 229.346L194.646 229.373L194.634 229.381L188.968 232.721L185.416 227.73L185.244 226.794L185.17 226.388L184.813 226.181L164.517 214.414C163.411 213.773 162.725 212.58 162.725 211.299V184.358V184.022L162.505 183.769L161.497 182.611L159.343 179.682L163.785 177.11L163.796 177.123L164.45 176.726C164.797 176.515 165.14 176.408 165.468 176.408ZM165.468 175.513C164.983 175.513 164.482 175.66 163.987 175.961L163.986 175.96L158.032 179.408L160.8 183.173L161.832 184.358V211.3C161.832 212.904 162.685 214.386 164.07 215.189L184.366 226.956L184.574 228.088L188.715 233.908L195.085 230.153C195.096 230.147 195.107 230.14 195.118 230.134L195.16 230.109V230.106C195.729 229.75 196.131 229.125 196.131 228.356L196.132 195.559C196.132 193.903 195.25 192.372 193.819 191.546L166.701 175.854C166.312 175.628 165.896 175.513 165.468 175.513Z" fill="#FDFEFE"/>
<path d="M187.731 233.713C187.45 233.713 187.179 233.639 186.927 233.493L159.493 217.588C158.25 216.867 157.478 215.525 157.478 214.086V181.15C157.478 180.181 158.29 179.58 159.043 179.58C159.315 179.58 159.576 179.652 159.82 179.793L187.258 195.669C188.547 196.414 189.347 197.803 189.347 199.295L189.347 232.093C189.347 232.539 189.173 232.952 188.857 233.256C188.554 233.546 188.144 233.713 187.731 233.713Z" fill="url(#paint17_linear_239_5820)"/>
<path d="M159.043 180.028C159.235 180.028 159.422 180.079 159.597 180.18L187.035 196.057C188.186 196.722 188.901 197.963 188.901 199.295L188.9 232.093C188.9 232.817 188.293 233.266 187.731 233.266C187.529 233.266 187.333 233.212 187.15 233.106L159.716 217.2C158.61 216.559 157.923 215.366 157.923 214.086V181.15C157.923 180.457 158.504 180.028 159.043 180.028ZM159.043 179.133C157.994 179.133 157.031 179.975 157.031 181.15V214.086C157.031 215.689 157.884 217.172 159.269 217.975L186.704 233.88C187.036 234.073 187.388 234.16 187.731 234.16C188.806 234.16 189.793 233.298 189.793 232.093L189.794 199.295C189.794 197.639 188.912 196.109 187.481 195.281L160.043 179.405C159.719 179.218 159.377 179.133 159.043 179.133Z" fill="#FDFEFE"/>
<path d="M190.205 232.51C190.227 232.374 190.239 232.234 190.239 232.093L190.239 199.295C190.239 198.859 190.167 198.407 190.019 197.92L195.578 194.709C195.651 195.01 195.686 195.288 195.686 195.559L195.685 228.356C195.685 228.924 195.408 229.423 194.924 229.725L194.848 229.773L190.205 232.51Z" fill="url(#paint18_linear_239_5820)"/>
<path d="M195.237 195.423C195.239 195.468 195.24 195.514 195.24 195.559L195.24 228.356C195.24 228.766 195.039 229.127 194.689 229.345L194.63 229.383L190.686 231.708L190.686 199.295C190.686 198.921 190.638 198.537 190.541 198.135L195.237 195.423ZM195.844 194.039L189.48 197.715C189.664 198.218 189.794 198.743 189.794 199.295L189.793 232.093C189.793 232.878 189.374 233.516 188.785 233.867L195.086 230.153C195.097 230.147 195.108 230.14 195.118 230.134L195.161 230.109V230.105C195.73 229.75 196.132 229.125 196.132 228.356L196.132 195.559C196.132 195.029 196.013 194.524 195.844 194.039ZM188.785 233.867L188.77 233.876C188.775 233.873 188.78 233.87 188.785 233.867Z" fill="#FDFEFE"/>
<path d="M172.968 197.406C172.967 197.797 172.902 198.048 172.78 198.175C172.654 198.296 172.461 198.283 172.197 198.13C172.008 198.02 171.811 197.869 171.605 197.676L171.601 198.988C171.801 199.198 172.068 199.398 172.408 199.594C172.768 199.803 173.093 199.889 173.376 199.846C173.662 199.806 173.881 199.636 174.035 199.334C174.193 199.034 174.273 198.619 174.275 198.088L174.297 190.244L172.991 189.487L172.968 197.406Z" fill="white"/>
<path d="M176.607 197.642L178.439 198.703L178.836 200.977L180.146 201.735L178.427 192.602L176.653 191.575L174.892 198.693L176.198 199.449L176.607 197.642ZM177.379 194.133C177.444 193.788 177.499 193.469 177.539 193.175C177.556 193.338 177.602 193.673 177.679 194.179C177.757 194.681 177.805 194.998 177.826 195.126L178.196 197.223L176.872 196.456C177.143 195.25 177.314 194.479 177.379 194.133Z" fill="white"/>
<path d="M183.32 203.572L184.996 196.438L183.682 195.677L182.758 200.09C182.653 200.573 182.569 201.127 182.499 201.754C182.419 200.92 182.342 200.275 182.258 199.801L181.354 194.33L180.041 193.569L181.66 202.611L183.32 203.572Z" fill="white"/>
<path d="M186.151 205.211L186.56 203.405L188.388 204.463L188.786 206.737L190.1 207.497L188.377 198.362L186.606 197.337L184.844 204.455L186.151 205.211ZM187.328 199.894C187.393 199.549 187.448 199.23 187.492 198.938C187.506 199.098 187.551 199.434 187.629 199.94C187.706 200.442 187.758 200.761 187.78 200.889L188.149 202.986L186.821 202.217C187.096 201.012 187.263 200.239 187.328 199.894Z" fill="white"/>
<path d="M184.804 208.024L174.892 202.267V202.773L184.804 208.53V208.024Z" fill="white"/>
<path d="M174.892 203.766L190.1 212.587V212.081L174.892 203.26V203.766Z" fill="white"/>
<path d="M185.468 208.904L190.1 211.594V211.089L185.468 208.399V208.904Z" fill="white"/>
<path d="M184.804 209.962L174.892 204.205V204.71L184.804 210.467V209.962Z" fill="white"/>
<path d="M174.892 205.703L190.1 214.524V214.018L174.892 205.198V205.703Z" fill="white"/>
<path d="M185.468 210.842L190.1 213.532V213.026L185.468 210.336V210.842Z" fill="white"/>
<path d="M184.804 212.761L174.892 207.004V207.51L184.804 213.266V212.761Z" fill="white"/>
<path d="M174.892 208.503L190.1 217.324V216.818L174.892 207.997V208.503Z" fill="white"/>
<path d="M185.468 213.641L190.1 216.331V215.825L185.468 213.135V213.641Z" fill="white"/>
<path d="M184.804 214.698L174.892 208.941V209.447L184.804 215.204V214.698Z" fill="white"/>
<path d="M174.892 210.44L190.1 219.261V218.755L174.892 209.934V210.44Z" fill="white"/>
<path d="M185.468 215.578L190.1 218.268V217.762L185.468 215.073V215.578Z" fill="white"/>
<path d="M184.804 217.497L174.892 211.74V212.246L184.804 218.003V217.497Z" fill="white"/>
<path d="M174.892 213.239L190.1 222.06V221.555L174.892 212.734V213.239Z" fill="white"/>
<path d="M185.468 218.377L190.1 221.067V220.562L185.468 217.872V218.377Z" fill="white"/>
<path d="M184.804 219.435L174.892 213.678V214.183L184.804 219.94V219.435Z" fill="white"/>
<path d="M174.892 215.177L190.1 223.997V223.492L174.892 214.671V215.177Z" fill="white"/>
<path d="M185.468 220.315L190.1 223.005V222.499L185.468 219.809V220.315Z" fill="white"/>
<path d="M184.804 222.234L174.892 216.477V216.983L184.804 222.739V222.234Z" fill="white"/>
<path d="M174.892 217.976L190.1 226.796V226.291L174.892 217.47V217.976Z" fill="white"/>
<path d="M185.468 223.114L190.1 225.804V225.298L185.468 222.609V223.114Z" fill="white"/>
<path d="M184.804 224.171L174.892 218.415V218.92L184.804 224.677V224.171Z" fill="white"/>
<path d="M174.892 219.913L190.1 228.734V228.228L174.892 219.407V219.913Z" fill="white"/>
<g opacity="0.46">
<path opacity="0.46" d="M159.034 232.048L107.69 261.696C105.744 262.82 103.314 261.411 103.314 259.16V243.222C103.314 242.175 103.871 241.208 104.776 240.686L156.121 211.037C158.067 209.913 160.496 211.322 160.496 213.574V229.511C160.496 230.558 159.939 231.525 159.034 232.048Z" fill="#CDE9F9"/>
</g>
<g opacity="0.46">
<path opacity="0.46" d="M222.491 207.458L171.147 237.107C169.201 238.23 166.771 236.822 166.771 234.57V218.633C166.771 217.586 167.329 216.618 168.234 216.096L219.578 186.447C221.524 185.323 223.953 186.732 223.953 188.984V204.921C223.953 205.968 223.396 206.935 222.491 207.458Z" fill="#CDE9F9"/>
</g>
<g opacity="0.46">
<path opacity="0.46" d="M227.292 175.308L175.947 204.957C174.001 206.081 171.572 204.672 171.572 202.42V186.483C171.572 185.436 172.129 184.469 173.034 183.946L224.378 154.297C226.324 153.174 228.754 154.582 228.754 156.834V172.771C228.754 173.818 228.196 174.786 227.292 175.308Z" fill="#CDE9F9"/>
</g>
<defs>
<linearGradient id="paint0_linear_239_5820" x1="84.3701" y1="105.638" x2="215.915" y2="105.638" gradientUnits="userSpaceOnUse">
<stop stop-color="#21409A"/>
<stop offset="0.9984" stop-color="#29ABE2" stop-opacity="0"/>
</linearGradient>
<linearGradient id="paint1_linear_239_5820" x1="132.681" y1="110.502" x2="210.633" y2="110.502" gradientUnits="userSpaceOnUse">
<stop offset="0.5191" stop-color="#21285A"/>
<stop offset="0.7064" stop-color="#21295A" stop-opacity="0.6104"/>
<stop offset="0.7739" stop-color="#222D5E" stop-opacity="0.4701"/>
<stop offset="0.822" stop-color="#233463" stop-opacity="0.37"/>
<stop offset="0.861" stop-color="#253E6B" stop-opacity="0.2891"/>
<stop offset="0.8943" stop-color="#274A77" stop-opacity="0.2198"/>
<stop offset="0.9238" stop-color="#2A5986" stop-opacity="0.1584"/>
<stop offset="0.9505" stop-color="#2E6D9A" stop-opacity="0.1029"/>
<stop offset="0.975" stop-color="#2F85B5" stop-opacity="0.0519"/>
<stop offset="0.9969" stop-color="#2CA5D9" stop-opacity="0.01"/>
<stop offset="1" stop-color="#29ABE2" stop-opacity="0"/>
</linearGradient>
<linearGradient id="paint2_linear_239_5820" x1="132.897" y1="91.4603" x2="157.45" y2="91.4603" gradientUnits="userSpaceOnUse">
<stop offset="0.0607" stop-color="#28A8E0"/>
<stop offset="0.9984" stop-color="#29ABE2" stop-opacity="0"/>
</linearGradient>
<linearGradient id="paint3_linear_239_5820" x1="94.0021" y1="67.9759" x2="128.106" y2="67.9759" gradientUnits="userSpaceOnUse">
<stop offset="0.5191" stop-color="#21285A"/>
<stop offset="0.7064" stop-color="#21295A" stop-opacity="0.6104"/>
<stop offset="0.7739" stop-color="#222D5E" stop-opacity="0.4701"/>
<stop offset="0.822" stop-color="#233463" stop-opacity="0.37"/>
<stop offset="0.861" stop-color="#253E6B" stop-opacity="0.2891"/>
<stop offset="0.8943" stop-color="#274A77" stop-opacity="0.2198"/>
<stop offset="0.9238" stop-color="#2A5986" stop-opacity="0.1584"/>
<stop offset="0.9505" stop-color="#2E6D9A" stop-opacity="0.1029"/>
<stop offset="0.975" stop-color="#2F85B5" stop-opacity="0.0519"/>
<stop offset="0.9969" stop-color="#2CA5D9" stop-opacity="0.01"/>
<stop offset="1" stop-color="#29ABE2" stop-opacity="0"/>
</linearGradient>
<linearGradient id="paint4_linear_239_5820" x1="89.2421" y1="68.8709" x2="123.346" y2="68.8709" gradientUnits="userSpaceOnUse">
<stop stop-color="#21409A"/>
<stop offset="0.9984" stop-color="#29ABE2" stop-opacity="0"/>
</linearGradient>
<linearGradient id="paint5_linear_239_5820" x1="28.1942" y1="124.658" x2="42.1158" y2="124.658" gradientUnits="userSpaceOnUse">
<stop stop-color="#6B385F"/>
<stop offset="0.4197" stop-color="#6F3B62" stop-opacity="0.7323"/>
<stop offset="0.5218" stop-color="#764268" stop-opacity="0.6035"/>
<stop offset="0.6937" stop-color="#8C567A" stop-opacity="0.3865"/>
<stop offset="0.9131" stop-color="#B5799B" stop-opacity="0.1096"/>
<stop offset="1" stop-color="#CC8DAE" stop-opacity="0"/>
</linearGradient>
<linearGradient id="paint6_linear_239_5820" x1="71.2424" y1="82.411" x2="91.0517" y2="82.411" gradientUnits="userSpaceOnUse">
<stop stop-color="#6B385F"/>
<stop offset="0.4197" stop-color="#6F3B62" stop-opacity="0.7323"/>
<stop offset="0.5218" stop-color="#764268" stop-opacity="0.6035"/>
<stop offset="0.6937" stop-color="#8C567A" stop-opacity="0.3865"/>
<stop offset="0.9131" stop-color="#B5799B" stop-opacity="0.1096"/>
<stop offset="1" stop-color="#CC8DAE" stop-opacity="0"/>
</linearGradient>
<linearGradient id="paint7_linear_239_5820" x1="16.1231" y1="109.945" x2="92.2333" y2="109.945" gradientUnits="userSpaceOnUse">
<stop offset="0.0607" stop-color="#28A8E0"/>
<stop offset="0.9984" stop-color="#29ABE2" stop-opacity="0"/>
</linearGradient>
<linearGradient id="paint8_linear_239_5820" x1="22.1552" y1="119.852" x2="54.2055" y2="119.852" gradientUnits="userSpaceOnUse">
<stop offset="0.4247" stop-color="white"/>
<stop offset="1" stop-color="#2484C6" stop-opacity="0"/>
</linearGradient>
<linearGradient id="paint9_linear_239_5820" x1="64.2248" y1="135.512" x2="78.1464" y2="135.512" gradientUnits="userSpaceOnUse">
<stop stop-color="#6B385F"/>
<stop offset="0.4197" stop-color="#6F3B62" stop-opacity="0.7323"/>
<stop offset="0.5218" stop-color="#764268" stop-opacity="0.6035"/>
<stop offset="0.6937" stop-color="#8C567A" stop-opacity="0.3865"/>
<stop offset="0.9131" stop-color="#B5799B" stop-opacity="0.1096"/>
<stop offset="1" stop-color="#CC8DAE" stop-opacity="0"/>
</linearGradient>
<linearGradient id="paint10_linear_239_5820" x1="116.477" y1="144.026" x2="136.286" y2="144.026" gradientUnits="userSpaceOnUse">
<stop stop-color="#6B385F"/>
<stop offset="0.4197" stop-color="#6F3B62" stop-opacity="0.7323"/>
<stop offset="0.5218" stop-color="#764268" stop-opacity="0.6035"/>
<stop offset="0.6937" stop-color="#8C567A" stop-opacity="0.3865"/>
<stop offset="0.9131" stop-color="#B5799B" stop-opacity="0.1096"/>
<stop offset="1" stop-color="#CC8DAE" stop-opacity="0"/>
</linearGradient>
<linearGradient id="paint11_linear_239_5820" x1="92.1639" y1="192.615" x2="126.648" y2="192.615" gradientUnits="userSpaceOnUse">
<stop offset="0.0607" stop-color="#28A8E0"/>
<stop offset="0.9984" stop-color="#29ABE2" stop-opacity="0"/>
</linearGradient>
<linearGradient id="paint12_linear_239_5820" x1="152.327" y1="187.512" x2="190.427" y2="187.512" gradientUnits="userSpaceOnUse">
<stop stop-color="#21409A"/>
<stop offset="0.9984" stop-color="#29ABE2" stop-opacity="0"/>
</linearGradient>
<linearGradient id="paint13_linear_239_5820" x1="151.326" y1="189.448" x2="184.089" y2="189.448" gradientUnits="userSpaceOnUse">
<stop stop-color="#21409A"/>
<stop offset="0.9984" stop-color="#29ABE2" stop-opacity="0"/>
</linearGradient>
<linearGradient id="paint14_linear_239_5820" x1="183.007" y1="216.698" x2="183.051" y2="216.698" gradientUnits="userSpaceOnUse">
<stop stop-color="#21409A"/>
<stop offset="0.9984" stop-color="#29ABE2" stop-opacity="0"/>
</linearGradient>
<linearGradient id="paint15_linear_239_5820" x1="183.065" y1="196.759" x2="190.428" y2="196.759" gradientUnits="userSpaceOnUse">
<stop stop-color="#21409A"/>
<stop offset="0.9984" stop-color="#29ABE2" stop-opacity="0"/>
</linearGradient>
<linearGradient id="paint16_linear_239_5820" x1="158.687" y1="204.637" x2="195.686" y2="204.637" gradientUnits="userSpaceOnUse">
<stop offset="0.0607" stop-color="#28A8E0"/>
<stop offset="0.9984" stop-color="#29ABE2" stop-opacity="0"/>
</linearGradient>
<linearGradient id="paint17_linear_239_5820" x1="157.477" y1="206.647" x2="189.347" y2="206.647" gradientUnits="userSpaceOnUse">
<stop offset="0.0607" stop-color="#28A8E0"/>
<stop offset="0.9984" stop-color="#29ABE2" stop-opacity="0"/>
</linearGradient>
<linearGradient id="paint18_linear_239_5820" x1="190.019" y1="213.61" x2="195.686" y2="213.61" gradientUnits="userSpaceOnUse">
<stop offset="0.0607" stop-color="#28A8E0"/>
<stop offset="0.9984" stop-color="#29ABE2" stop-opacity="0"/>
</linearGradient>
</defs>
</svg>
