<svg width="23" height="23" viewBox="0 0 23 23" fill="none" xmlns="http://www.w3.org/2000/svg">
<path fill-rule="evenodd" clip-rule="evenodd" d="M11.2083 0.489746C5.0345 0.489746 0.067627 5.4329 0.067627 11.5772C0.067627 16.4741 3.27057 20.6319 7.68041 22.1103C8.23744 22.2027 8.42312 21.8793 8.42312 21.5559C8.42312 21.2787 8.42312 20.5857 8.42312 19.6618C5.31302 20.3548 4.66315 18.1835 4.66315 18.1835C4.15253 16.8899 3.40982 16.5665 3.40982 16.5665C2.3886 15.8736 3.50266 15.8736 3.50266 15.8736C4.61673 15.966 5.22018 17.0285 5.22018 17.0285C6.19499 18.7378 7.81967 18.2297 8.46954 17.9525C8.56238 17.2133 8.84089 16.7513 9.16583 16.4742C6.7056 16.197 4.10611 15.2268 4.10611 10.9766C4.10611 9.77548 4.52389 8.75913 5.2666 8.01997C5.17376 7.74278 4.75599 6.63404 5.35944 5.06332C5.35944 5.06332 6.28783 4.78613 8.42312 6.21826C9.30509 5.98727 10.2799 5.84868 11.2083 5.84868C12.1367 5.84868 13.1115 5.98727 13.9934 6.21826C16.1287 4.78613 17.0571 5.06332 17.0571 5.06332C17.6606 6.58784 17.2892 7.69659 17.15 8.01997C17.8463 8.80533 18.3104 9.77548 18.3104 10.9766C18.3104 15.2268 15.711 16.1508 13.2043 16.428C13.6221 16.7513 13.947 17.4443 13.947 18.4607C13.947 19.939 13.947 21.1401 13.947 21.5097C13.947 21.7869 14.1327 22.1565 14.7362 22.0641C19.146 20.6319 22.3489 16.4741 22.3489 11.5772C22.3489 5.4329 17.3821 0.489746 11.2083 0.489746Z" fill="white"/>
</svg>
