<svg width="20" height="19" viewBox="0 0 20 19" fill="none" xmlns="http://www.w3.org/2000/svg">
<path d="M19.0815 8.79713V9.44747C19.0815 9.80669 18.7903 10.0979 18.4311 10.0979H10.9514V17.5776C10.9514 17.9367 10.6602 18.228 10.301 18.228H9.65063C9.29142 18.228 9.0002 17.9367 9.0002 17.5776V10.0979H1.52053C1.16132 10.0979 0.870117 9.80669 0.870117 9.44747V8.79713C0.870117 8.43791 1.16132 8.14669 1.52053 8.14669H9.0002V0.667002C9.0002 0.307792 9.29142 0.0166016 9.65063 0.0166016H10.301C10.6602 0.0166016 10.9514 0.307792 10.9514 0.667002V8.14669H18.4311C18.7903 8.14669 19.0815 8.43791 19.0815 8.79713Z" fill="#505056"/>
</svg>
