<svg width="24" height="24" viewBox="0 0 24 24" fill="none" xmlns="http://www.w3.org/2000/svg">
<path d="M12.1903 2.57833C15.3 2.57833 15.6682 2.58993 16.8967 2.64567C17.6353 2.65467 18.3669 2.78964 19.0596 3.04473C19.562 3.23756 20.0182 3.53293 20.399 3.91185C20.7797 4.29077 21.0765 4.74484 21.2703 5.24482C21.5266 5.93427 21.6622 6.66236 21.6712 7.39743C21.7267 8.62001 21.7389 8.98651 21.7389 12.0813C21.7389 15.1761 21.7273 15.5426 21.6712 16.7652C21.6622 17.5002 21.5266 18.2283 21.2703 18.9178C21.0765 19.4178 20.7797 19.8718 20.399 20.2508C20.0182 20.6297 19.562 20.9251 19.0596 21.1179C18.3669 21.373 17.6353 21.5079 16.8967 21.5169C15.6688 21.5721 15.3005 21.5843 12.1903 21.5843C9.08013 21.5843 8.71187 21.5727 7.48398 21.5169C6.74538 21.5079 6.0138 21.373 5.32104 21.1179C4.81866 20.9251 4.36241 20.6297 3.98168 20.2508C3.60094 19.8718 3.30414 19.4178 3.1104 18.9178C2.85408 18.2283 2.71846 17.5002 2.70942 16.7652C2.65396 15.5426 2.64176 15.1761 2.64176 12.0813C2.64176 8.98651 2.65341 8.62001 2.70942 7.39743C2.71846 6.66236 2.85408 5.93427 3.1104 5.24482C3.30414 4.74484 3.60094 4.29077 3.98168 3.91185C4.36241 3.53293 4.81866 3.23756 5.32104 3.04473C6.0138 2.78964 6.74538 2.65467 7.48398 2.64567C8.71243 2.59048 9.08068 2.57833 12.1903 2.57833ZM12.1903 0.489746C9.0291 0.489746 8.6309 0.502993 7.38859 0.559292C6.42195 0.578427 5.46557 0.760579 4.56012 1.098C3.7834 1.38924 3.07989 1.84565 2.49867 2.43538C1.90558 3.01403 1.44659 3.71458 1.15376 4.48809C0.814724 5.38921 0.631699 6.34102 0.612472 7.30305C0.557012 8.53832 0.543701 8.93462 0.543701 12.0808C0.543701 15.2269 0.557012 15.6232 0.613581 16.8596C0.632808 17.8216 0.815833 18.7734 1.15487 19.6745C1.44737 20.4479 1.90598 21.1485 2.49867 21.7272C3.08021 22.3171 3.78412 22.7735 4.56123 23.0646C5.46668 23.402 6.42306 23.5842 7.3897 23.6033C8.63201 23.6585 9.02855 23.6729 12.1914 23.6729C15.3543 23.6729 15.7509 23.6596 16.9932 23.6033C17.9598 23.5842 18.9162 23.402 19.8216 23.0646C20.5951 22.7662 21.2974 22.3105 21.8838 21.7266C22.4701 21.1426 22.9276 20.4433 23.2269 19.6734C23.5659 18.7723 23.749 17.8205 23.7682 16.8585C23.8237 15.6232 23.837 15.2269 23.837 12.0808C23.837 8.93462 23.8237 8.53832 23.7671 7.30195C23.7479 6.33992 23.5648 5.3881 23.2258 4.48699C22.9333 3.71358 22.4747 3.01304 21.882 2.43428C21.3005 1.84442 20.5965 1.388 19.8194 1.09689C18.914 0.759474 17.9576 0.577323 16.991 0.558188C15.7498 0.502993 15.3516 0.489746 12.1903 0.489746Z" fill="white"/>
<path d="M12.1883 6.12842C11.0054 6.12842 9.84912 6.47751 8.86558 7.13155C7.88204 7.7856 7.11546 8.71521 6.66279 9.80285C6.21011 10.8905 6.09167 12.0873 6.32244 13.2419C6.55321 14.3965 7.12283 15.4571 7.95927 16.2896C8.7957 17.122 9.86138 17.6889 11.0215 17.9186C12.1817 18.1482 13.3843 18.0304 14.4771 17.5798C15.57 17.1293 16.504 16.3664 17.1612 15.3876C17.8184 14.4087 18.1692 13.2579 18.1692 12.0807C18.1692 10.502 17.539 8.98806 16.4174 7.87179C15.2958 6.75553 13.7746 6.12842 12.1883 6.12842ZM12.1883 15.9443C11.4205 15.9443 10.6699 15.7177 10.0315 15.2932C9.39308 14.8687 8.89549 14.2652 8.60165 13.5592C8.30781 12.8532 8.23093 12.0764 8.38073 11.3269C8.53053 10.5774 8.90027 9.88899 9.44321 9.34865C9.98614 8.80831 10.6779 8.44033 11.431 8.29125C12.184 8.14217 12.9646 8.21868 13.674 8.51111C14.3834 8.80354 14.9897 9.29876 15.4163 9.93414C15.8429 10.5695 16.0706 11.3165 16.0706 12.0807C16.0706 13.1054 15.6615 14.0881 14.9335 14.8127C14.2054 15.5373 13.218 15.9443 12.1883 15.9443Z" fill="white"/>
<path d="M18.4061 7.28477C19.178 7.28477 19.8037 6.66204 19.8037 5.89385C19.8037 5.12567 19.178 4.50293 18.4061 4.50293C17.6343 4.50293 17.0085 5.12567 17.0085 5.89385C17.0085 6.66204 17.6343 7.28477 18.4061 7.28477Z" fill="white"/>
</svg>
