<svg width="26" height="14" viewBox="0 0 26 14" fill="none" xmlns="http://www.w3.org/2000/svg">
<path d="M0.9 14C0.753333 14 0.633333 13.9533 0.54 13.86C0.446667 13.7667 0.4 13.6467 0.4 13.5V0.5C0.4 0.353333 0.446667 0.233333 0.54 0.14C0.633333 0.0466659 0.753333 -9.53674e-07 0.9 -9.53674e-07H6.5C7.60667 -9.53674e-07 8.56667 0.173333 9.38 0.52C10.2067 0.853333 10.8467 1.36 11.3 2.04C11.7667 2.72 12 3.58 12 4.62C12 5.64667 11.7667 6.49333 11.3 7.16C10.8467 7.82667 10.2067 8.32 9.38 8.64C8.56667 8.96 7.60667 9.12 6.5 9.12H4.12V13.5C4.12 13.6467 4.06667 13.7667 3.96 13.86C3.86667 13.9533 3.74667 14 3.6 14H0.9ZM4.06 6.36H6.4C6.97333 6.36 7.42667 6.21333 7.76 5.92C8.10667 5.62667 8.28 5.18 8.28 4.58C8.28 4.07333 8.13333 3.64667 7.84 3.3C7.54667 2.95333 7.06667 2.78 6.4 2.78H4.06V6.36ZM17.8956 14C17.749 14 17.629 13.9533 17.5356 13.86C17.4423 13.7667 17.3956 13.6467 17.3956 13.5V3.14H13.8356C13.689 3.14 13.569 3.09333 13.4756 3C13.3823 2.89333 13.3356 2.77333 13.3356 2.64V0.5C13.3356 0.353333 13.3823 0.233333 13.4756 0.14C13.569 0.0466659 13.689 -9.53674e-07 13.8356 -9.53674e-07H24.5956C24.7423 -9.53674e-07 24.8623 0.0466659 24.9556 0.14C25.049 0.233333 25.0956 0.353333 25.0956 0.5V2.64C25.0956 2.77333 25.049 2.89333 24.9556 3C24.8623 3.09333 24.7423 3.14 24.5956 3.14H21.0356V13.5C21.0356 13.6467 20.989 13.7667 20.8956 13.86C20.8023 13.9533 20.6823 14 20.5356 14H17.8956Z" fill="white"/>
</svg>
