<svg width="20" height="16" viewBox="0 0 20 16" fill="none" xmlns="http://www.w3.org/2000/svg">
<path d="M19.2109 1.92133C18.4905 2.23998 17.7301 2.43914 16.9296 2.55864C17.7301 2.08066 18.3705 1.32386 18.6506 0.407728C17.8902 0.845876 17.0497 1.16453 16.1292 1.36369C15.4088 0.606886 14.3682 0.128906 13.2475 0.128906C11.0863 0.128906 9.32531 1.8815 9.32531 4.03241C9.32531 4.35106 9.36533 4.62988 9.44538 4.9087C6.20353 4.74938 3.28187 3.19594 1.32075 0.806044C1.00057 1.40352 0.800456 2.04082 0.800456 2.75779C0.800456 4.11207 1.48084 5.30702 2.56146 6.02399C1.92109 5.98416 1.32075 5.82483 0.760433 5.54601V5.58584C0.760433 7.49776 2.12121 9.09102 3.92223 9.44951C3.60205 9.52917 3.24185 9.569 2.88164 9.569C2.6415 9.569 2.36134 9.52917 2.12121 9.48934C2.6415 11.0428 4.08232 12.1979 5.8033 12.1979C4.44253 13.2335 2.76157 13.8708 0.920524 13.8708C0.600342 13.8708 0.280159 13.8708 0 13.831C1.761 14.9463 3.80216 15.5836 6.04344 15.5836C13.2876 15.5836 17.2498 9.60884 17.2498 4.43072C17.2498 4.2714 17.2498 4.07224 17.2498 3.91291C18.0103 3.3951 18.6906 2.71796 19.2109 1.92133Z" fill="white"/>
</svg>
